<?xml version="1.0" standalone="no"?>
<!DOCTYPE svg PUBLIC "-//W3C//DTD SVG 20010904//EN"
 "http://www.w3.org/TR/2001/REC-SVG-20010904/DTD/svg10.dtd">
<svg version="1.0" xmlns="http://www.w3.org/2000/svg"
 width="512.000000pt" height="512.000000pt" viewBox="0 0 512.000000 512.000000"
 preserveAspectRatio="xMidYMid meet">
<metadata>
Created by potrace 1.14, written by Peter Selinger 2001-2017
</metadata>
<g transform="translate(0.000000,512.000000) scale(0.100000,-0.100000)"
fill="#000000" stroke="none">
<path d="M395 5106 c-193 -50 -343 -203 -384 -394 -18 -84 -15 -4250 3 -4317
54 -204 216 -355 413 -385 46 -7 754 -10 2178 -8 2026 3 2112 4 2160 22 157
58 282 184 331 332 18 57 19 115 19 2204 0 2089 -1 2147 -19 2204 -33 99 -130
227 -207 272 -57 33 -128 62 -174 72 -78 17 -4253 15 -4320 -2z"/>
</g>
</svg>
